<?xml version="1.0" encoding="utf-8"?>
<!-- Generator: Adobe Illustrator 15.1.0, SVG Export Plug-In . SVG Version: 6.00 Build 0)  -->
<!DOCTYPE svg PUBLIC "-//W3C//DTD SVG 1.1//EN" "http://www.w3.org/Graphics/SVG/1.1/DTD/svg11.dtd">
<svg version="1.1" id="Layer_1" xmlns="http://www.w3.org/2000/svg" xmlns:xlink="http://www.w3.org/1999/xlink" x="0px" y="0px"
	 width="388px" height="78px" viewBox="0 0 388 78" style="enable-background:new 0 0 388 78;" xml:space="preserve">
<style type="text/css">
<![CDATA[
	.st0{clip-path:url(#SVGID_4_);fill:#0C62FF;}
	.st1{clip-path:url(#SVGID_4_);fill:none;stroke:#0C62FF;stroke-width:0.85;stroke-miterlimit:10;}
	.st2{clip-path:url(#SVGID_2_);}
	.st3{clip-path:url(#SVGID_4_);}
	.st4{clip-path:url(#SVGID_4_);fill:none;stroke:#000000;stroke-width:0.85;stroke-miterlimit:10;}
	.st5{clip-path:url(#SVGID_4_);fill:none;stroke:#000000;stroke-width:0.65;stroke-miterlimit:10;}
]]>
</style>
<g>
	<defs>
		<rect id="SVGID_1_" width="388" height="78"/>
	</defs>
	<clipPath id="SVGID_2_">
		<use xlink:href="#SVGID_1_"  style="overflow:visible;"/>
	</clipPath>
	<g class="st2">
		<defs>
			<rect id="SVGID_3_" width="388" height="78"/>
		</defs>
		<clipPath id="SVGID_4_">
			<use xlink:href="#SVGID_3_"  style="overflow:visible;"/>
		</clipPath>
		<polygon class="st3" points="3,49.7 2.1,50.2 2.1,29.7 3,30.2 		"/>
		<polygon class="st3" points="20.1,59.6 19.6,60.3 2.1,50.2 3,49.7 		"/>
		<polygon class="st3" points="21.9,56.5 21.5,57.2 6,48.2 6.4,47.5 		"/>
		<rect x="41.1" y="29.9" class="st3" width="0.8" height="20"/>
		<rect x="44.7" y="29.9" class="st3" width="0.8" height="20"/>
		<polygon class="st3" points="3,30.2 2.1,29.7 19.6,19.5 20.1,20.2 		"/>
		<polygon class="st3" points="6.4,32.3 6,31.7 21.5,22.7 21.9,23.4 		"/>
		<polygon class="st3" points="350.3,51.5 349.5,52 349.5,31.5 350.3,32 		"/>
		<rect x="353.2" y="33.8" class="st3" width="0.8" height="15.9"/>
		<polygon class="st3" points="367.3,61.3 367.3,62.2 349.5,52 350.3,51.5 		"/>
		<polygon class="st3" points="384.2,51.5 385,52 367.3,62.2 367.3,61.3 		"/>
		<polygon class="st3" points="384.2,32 385,31.5 385,52 384.2,51.5 		"/>
		<polygon class="st3" points="367.3,22.2 367.3,21.3 385,31.5 384.2,32 		"/>
		<polygon class="st3" points="367.3,21.3 367.3,22.2 350.3,32 349.5,31.5 		"/>
		<line class="st5" x1="139.3" y1="39.9" x2="72.2" y2="39.9"/>
		<path class="st3" d="M146.6,39.9l-8.4,2.1c0,0,1-1.2,1-2.1c0-1-1-2.2-1-2.2L146.6,39.9"/>
		<path class="st4" d="M146.6,39.9l-8.4,2.1c0,0,1-1.2,1-2.1c0-1-1-2.2-1-2.2L146.6,39.9"/>
		<polygon class="st3" points="177.9,53 177,53.5 177,28.5 177.9,29 		"/>
		<rect x="181.4" y="47" class="st3" width="0.9" height="3.5"/>
		<rect x="181.4" y="39.2" class="st3" width="0.9" height="3.5"/>
		<rect x="181.4" y="31.3" class="st3" width="0.9" height="3.5"/>
		<polygon class="st3" points="197.5,62.8 197.5,63.7 177,53.5 177.9,53 		"/>
		<polygon class="st3" points="197.8,58.4 197.5,59.2 194.4,57.6 194.7,56.8 		"/>
		<polygon class="st3" points="191.3,55.2 190.9,55.9 187.8,54.3 188.2,53.6 		"/>
		<polygon class="st3" points="184.8,51.9 184.4,52.7 181.3,51.1 181.6,50.3 		"/>
		<polygon class="st3" points="220,53 220.8,53.5 217.1,55.2 216.8,54.3 		"/>
		<polygon class="st3" points="213.6,55.8 214,56.5 210.7,58 210.3,57.2 		"/>
		<polygon class="st3" points="207.2,58.5 207.5,59.3 204.3,60.8 204,60 		"/>
		<polygon class="st3" points="200.8,61.3 201.1,62.1 197.5,63.7 197.5,62.8 		"/>
		<polygon class="st3" points="220,29 220.8,28.5 220.8,53.5 220,53 		"/>
		<rect x="215.6" y="31.5" class="st3" width="0.9" height="3.5"/>
		<rect x="215.6" y="39.2" class="st3" width="0.9" height="3.5"/>
		<rect x="215.6" y="46.8" class="st3" width="0.9" height="3.5"/>
		<polygon class="st3" points="197.5,17.4 197.5,16.5 201,18.3 200.7,19 		"/>
		<polygon class="st3" points="204,20.8 204.3,20 207.5,21.7 207.2,22.4 		"/>
		<polygon class="st3" points="210.4,24.1 210.8,23.3 214,25 213.5,25.7 		"/>
		<polygon class="st3" points="216.8,27.5 217.2,26.7 220.8,28.5 220,29 		"/>
		<polygon class="st3" points="177.9,29 177,28.5 197.5,16.5 197.5,17.4 		"/>
		<polygon class="st3" points="181.9,31.5 181.4,30.8 184.4,29.1 184.9,29.8 		"/>
		<polygon class="st3" points="188.4,27.7 188,27 191,25.2 191.4,26 		"/>
		<polygon class="st3" points="194.9,23.8 194.5,23.2 197.5,21.4 197.9,22.1 		"/>
		<polyline class="st4" points="229.8,3.3 234.4,3.3 234.4,75.6 229.8,75.6 		"/>
		<polyline class="st4" points="168.5,75.6 164,75.6 164,3.3 168.5,3.3 		"/>
		<line class="st5" x1="240.7" y1="4.5" x2="240.7" y2="15.6"/>
		<line class="st5" x1="238" y1="7.3" x2="243.5" y2="7.3"/>
		<line class="st5" x1="238" y1="12.8" x2="243.5" y2="12.8"/>
		<line class="st5" x1="317.8" y1="39.9" x2="250.7" y2="39.9"/>
		<path class="st3" d="M325.1,39.9l-8.4,2.1c0,0,1-1.2,1-2.1c0-1-1-2.2-1-2.2L325.1,39.9"/>
		<path class="st4" d="M325.1,39.9l-8.4,2.1c0,0,1-1.2,1-2.1c0-1-1-2.2-1-2.2L325.1,39.9"/>
		<path class="st3" d="M113.5,34.5h-8l3.8-9.3h0.3L113.5,34.5z M106.5,33.9h5.2l-2.6-6.4L106.5,33.9z"/>
		<path class="st1" d="M39.7,39.7c-5.2,1-9.3,5.8-9.6,11.1"/>
		<path class="st0" d="M30.2,53.6l-1.9-3.2c0,0,1,0.3,1.7,0.3c0.8-0.1,1.7-0.6,1.7-0.6L30.2,53.6"/>
		<path class="st1" d="M30.2,53.6l-1.9-3.2c0,0,1,0.3,1.7,0.3c0.8-0.1,1.7-0.6,1.7-0.6L30.2,53.6"/>
		<path class="st1" d="M15.7,50.4c0.3-4.7-2.8-9.3-7.2-10.9"/>
		<path class="st0" d="M5.6,39l3.7-1c0,0-0.6,0.9-0.8,1.6c-0.2,0.7,0,1.8,0,1.8L5.6,39"/>
		<path class="st1" d="M5.6,39l3.7-1c0,0-0.6,0.9-0.8,1.6c-0.2,0.7,0,1.8,0,1.8L5.6,39"/>
		<path class="st1" d="M15,29c4.4,3.1,10.8,2.7,14.9-0.8"/>
		<path class="st0" d="M31.8,26.1l-0.9,3.7c0,0-0.4-1-1-1.5s-1.6-0.9-1.6-0.9L31.8,26.1"/>
		<path class="st1" d="M31.8,26.1l-0.9,3.7c0,0-0.4-1-1-1.5s-1.6-0.9-1.6-0.9L31.8,26.1"/>
	</g>
</g>
</svg>
